<svg width="800" height="500" viewBox="0 0 800 500" fill="none" xmlns="http://www.w3.org/2000/svg">
  <rect width="800" height="500" fill="#1E1B4B"/>
  <rect x="50" y="50" width="700" height="400" rx="10" fill="#312E81"/>
  <rect x="80" y="80" width="640" height="30" rx="5" fill="#22C55E"/>
  <rect x="100" y="130" width="200" height="100" rx="8" fill="#22C55E" fill-opacity="0.3"/>
  <circle cx="200" cy="180" r="35" fill="#22C55E"/>
  <text x="200" y="185" font-family="Arial" font-size="14" fill="white" text-anchor="middle" font-weight="bold">1hr</text>
  <rect x="330" y="130" width="200" height="100" rx="8" fill="#8B5CF6" fill-opacity="0.3"/>
  <circle cx="430" cy="180" r="35" fill="#8B5CF6"/>
  <text x="430" y="185" font-family="Arial" font-size="14" fill="white" text-anchor="middle" font-weight="bold">92%</text>
  <rect x="560" y="130" width="150" height="100" rx="8" fill="#F59E0B" fill-opacity="0.3"/>
  <circle cx="635" cy="180" r="35" fill="#F59E0B"/>
  <text x="635" y="185" font-family="Arial" font-size="14" fill="white" text-anchor="middle" font-weight="bold">Auto</text>
  <rect x="100" y="260" width="600" height="160" rx="8" fill="#22C55E" fill-opacity="0.2"/>
  <rect x="120" y="280" width="200" height="20" rx="4" fill="#22C55E"/>
  <rect x="120" y="320" width="560" height="80" rx="5" fill="#312E81"/>
  <rect x="140" y="340" width="200" height="15" rx="3" fill="#22C55E"/>
  <rect x="140" y="365" width="400" height="10" rx="2" fill="#4ADE80"/>
  <rect x="500" y="335" width="100" height="50" rx="5" fill="#22C55E"/>
</svg>
