<svg width="800" height="500" viewBox="0 0 800 500" fill="none" xmlns="http://www.w3.org/2000/svg">
  <rect width="800" height="500" fill="#F1F5F9"/>
  <rect x="50" y="50" width="700" height="400" rx="10" fill="white"/>
  <rect x="80" y="80" width="250" height="150" rx="8" fill="#E0E7FF"/>
  <rect x="100" y="100" width="150" height="20" rx="4" fill="#3B82F6"/>
  <rect x="100" y="130" width="200" height="15" rx="3" fill="#93C5FD"/>
  <rect x="100" y="155" width="180" height="15" rx="3" fill="#93C5FD"/>
  <rect x="100" y="180" width="120" height="25" rx="5" fill="#3B82F6"/>
  <rect x="360" y="80" width="360" height="150" rx="8" fill="#F0FDF4"/>
  <rect x="380" y="100" width="150" height="20" rx="4" fill="#22C55E"/>
  <rect x="380" y="130" width="300" height="10" rx="2" fill="#86EFAC"/>
  <rect x="380" y="150" width="280" height="10" rx="2" fill="#86EFAC"/>
  <rect x="380" y="170" width="320" height="10" rx="2" fill="#86EFAC"/>
  <rect x="380" y="190" width="250" height="10" rx="2" fill="#86EFAC"/>
  <rect x="80" y="260" width="640" height="2" fill="#E2E8F0"/>
  <rect x="80" y="290" width="300" height="130" rx="8" fill="#FEF3C7"/>
  <rect x="100" y="310" width="100" height="15" rx="3" fill="#F59E0B"/>
  <rect x="100" y="335" width="260" height="10" rx="2" fill="#FDE68A"/>
  <rect x="100" y="355" width="240" height="10" rx="2" fill="#FDE68A"/>
  <rect x="100" y="375" width="200" height="10" rx="2" fill="#FDE68A"/>
  <rect x="410" y="290" width="310" height="130" rx="8" fill="#DBEAFE"/>
  <rect x="430" y="310" width="120" height="15" rx="3" fill="#3B82F6"/>
  <rect x="430" y="335" width="270" height="10" rx="2" fill="#93C5FD"/>
  <rect x="430" y="355" width="250" height="10" rx="2" fill="#93C5FD"/>
  <rect x="430" y="375" width="220" height="10" rx="2" fill="#93C5FD"/>
</svg>
