<svg width="800" height="500" viewBox="0 0 800 500" fill="none" xmlns="http://www.w3.org/2000/svg">
  <rect width="800" height="500" fill="#F1F5F9"/>
  <rect x="50" y="50" width="700" height="400" rx="10" fill="white"/>
  <rect x="80" y="80" width="640" height="30" rx="5" fill="#EC4899"/>
  <rect x="100" y="130" width="250" height="280" rx="8" fill="#FDF2F8"/>
  <rect x="120" y="150" width="100" height="15" rx="3" fill="#64748B"/>
  <rect x="120" y="180" width="210" height="80" rx="5" fill="white"/>
  <rect x="135" y="195" width="120" height="50" rx="3" fill="#EC4899"/>
  <rect x="135" y="255" width="80" height="10" rx="2" fill="#FBCFE8"/>
  <rect x="135" y="270" width="60" height="8" rx="2" fill="#FBCFE8"/>
  <rect x="120" y="280" width="210" height="80" rx="5" fill="white"/>
  <rect x="135" y="295" width="100" height="50" rx="3" fill="#EC4899"/>
  <rect x="135" y="355" width="90" height="10" rx="2" fill="#FBCFE8"/>
  <rect x="380" y="130" width="320" height="280" rx="8" fill="#F1F5F9"/>
  <rect x="400" y="150" width="150" height="20" rx="4" fill="#64748B"/>
  <rect x="400" y="190" width="280" height="2" fill="#E2E8F0"/>
  <rect x="400" y="210" width="100" height="15" rx="3" fill="#EC4899"/>
  <rect x="520" y="210" width="80" height="15" rx="3" fill="#22C55E"/>
  <rect x="400" y="240" width="250" height="10" rx="2" fill="#CBD5E1"/>
  <rect x="400" y="260" width="200" height="10" rx="2" fill="#CBD5E1"/>
  <rect x="400" y="300" width="120" height="15" rx="3" fill="#3B82F6"/>
  <rect x="540" y="300" width="80" height="15" rx="3" fill="#22C55E"/>
  <rect x="400" y="330" width="220" height="10" rx="2" fill="#CBD5E1"/>
  <rect x="400" y="350" width="180" height="10" rx="2" fill="#CBD5E1"/>
</svg>
