<svg width="800" height="400" viewBox="0 0 800 400" fill="none" xmlns="http://www.w3.org/2000/svg">
  <rect width="800" height="400" fill="#E0E7FF"/>
  <rect x="50" y="50" width="700" height="300" rx="10" fill="white"/>
  <rect x="100" y="80" width="100" height="100" rx="10" fill="#6366F1"/>
  <rect x="230" y="80" width="100" height="100" rx="10" fill="#EC4899"/>
  <rect x="360" y="80" width="100" height="100" rx="10" fill="#22C55E"/>
  <rect x="490" y="80" width="100" height="100" rx="10" fill="#3B82F6"/>
  <rect x="620" y="80" width="80" height="100" rx="10" fill="#F59E0B"/>
  <rect x="100" y="200" width="600" height="30" rx="5" fill="#E0E7FF"/>
  <rect x="110" y="210" width="200" height="10" rx="2" fill="#6366F1"/>
  <rect x="100" y="250" width="600" height="2" fill="#E2E8F0"/>
  <rect x="100" y="270" width="80" height="40" rx="5" fill="#6366F1"/>
  <rect x="200" y="270" width="80" height="40" rx="5" fill="#EC4899"/>
  <rect x="300" y="270" width="80" height="40" rx="5" fill="#22C55E"/>
  <rect x="400" y="270" width="80" height="40" rx="5" fill="#3B82F6"/>
  <rect x="500" y="270" width="80" height="40" rx="5" fill="#F59E0B"/>
</svg>
