<svg width="800" height="400" viewBox="0 0 800 400" fill="none" xmlns="http://www.w3.org/2000/svg">
  <rect width="800" height="400" fill="#DBEAFE"/>
  <rect x="50" y="50" width="700" height="300" rx="10" fill="white"/>
  <rect x="70" y="70" width="200" height="30" rx="5" fill="#3B82F6"/>
  <rect x="70" y="120" width="660" height="2" fill="#E2E8F0"/>
  <rect x="100" y="140" width="500" height="60" rx="5" fill="#F1F5F9"/>
  <rect x="120" y="155" width="300" height="12" rx="2" fill="#CBD5E1"/>
  <rect x="120" y="175" width="200" height="10" rx="2" fill="#E2E8F0"/>
  <circle cx="560" cy="170" r="15" fill="#22C55E"/>
  <rect x="100" y="210" width="500" height="60" rx="5" fill="#F1F5F9"/>
  <rect x="120" y="225" width="280" height="12" rx="2" fill="#CBD5E1"/>
  <rect x="120" y="245" width="220" height="10" rx="2" fill="#E2E8F0"/>
  <circle cx="560" cy="240" r="15" fill="#22C55E"/>
  <rect x="100" y="280" width="500" height="60" rx="5" fill="#F1F5F9"/>
  <rect x="120" y="295" width="320" height="12" rx="2" fill="#CBD5E1"/>
  <rect x="120" y="315" width="180" height="10" rx="2" fill="#E2E8F0"/>
  <circle cx="560" cy="310" r="15" fill="#F59E0B"/>
</svg>
