<svg width="800" height="500" viewBox="0 0 800 500" fill="none" xmlns="http://www.w3.org/2000/svg">
  <rect width="800" height="500" fill="#F1F5F9"/>
  <rect x="50" y="50" width="700" height="400" rx="10" fill="white"/>
  <rect x="80" y="80" width="640" height="30" rx="5" fill="#22C55E"/>
  <rect x="80" y="130" width="640" height="2" fill="#E2E8F0"/>
  <rect x="100" y="160" width="180" height="100" rx="8" fill="#F0FDF4"/>
  <circle cx="190" cy="200" r="30" fill="#22C55E"/>
  <text x="190" y="205" font-family="Arial" font-size="16" fill="white" text-anchor="middle" font-weight="bold">+15%</text>
  <rect x="310" y="160" width="180" height="100" rx="8" fill="#F0FDF4"/>
  <circle cx="400" cy="200" r="30" fill="#3B82F6"/>
  <text x="400" y="205" font-family="Arial" font-size="16" fill="white" text-anchor="middle" font-weight="bold">+22%</text>
  <rect x="520" y="160" width="180" height="100" rx="8" fill="#F0FDF4"/>
  <circle cx="610" cy="200" r="30" fill="#8B5CF6"/>
  <text x="610" y="205" font-family="Arial" font-size="16" fill="white" text-anchor="middle" font-weight="bold">+30%</text>
  <rect x="80" y="290" width="640" height="130" rx="8" fill="#F1F5F9"/>
  <rect x="100" y="310" width="200" height="20" rx="4" fill="#64748B"/>
  <path d="M100 370 L200 350 L300 360 L400 330 L500 340 L600 310 L700 320" stroke="#22C55E" stroke-width="3" fill="none"/>
</svg>
